<svg width="300" height="40" viewBox="0 0 300 40" fill="none" xmlns="http://www.w3.org/2000/svg">
<path d="M7.27441 39.6357C6.42806 39.6357 5.6224 39.4323 4.85742 39.0254C4.10872 38.6348 3.42513 38.0732 2.80664 37.3408C1.42318 35.6644 0.731445 33.6543 0.731445 31.3105C0.731445 30.3503 1.10579 29.39 1.85449 28.4297C2.61947 27.4531 3.86458 26.5742 5.58984 25.793C9.46354 24.0514 15.1195 23.1807 22.5576 23.1807C22.5576 23.1807 29.3691 17.8991 42.9922 7.33594C43.6758 6.79883 44.0827 6.47331 44.2129 6.35938C44.4245 6.13151 44.693 6.01758 45.0186 6.01758C45.3604 6.01758 45.6859 6.05013 45.9951 6.11523C46.3206 6.18034 46.6136 6.26986 46.874 6.38379C47.4437 6.62793 47.7285 6.91276 47.7285 7.23828C47.7285 7.46615 47.6715 7.64518 47.5576 7.77539L33.5928 23.1074H39.5498C39.8102 22.5215 40.2415 21.7077 40.8438 20.666L43.0898 17.0039C43.9688 15.6042 44.8314 14.2858 45.6777 13.0488L48.1436 9.63086C50.6663 6.26172 52.4893 4.57715 53.6123 4.57715C53.7262 4.57715 54.1657 4.73177 54.9307 5.04102C55.7119 5.33398 56.3711 5.62695 56.9082 5.91992C58.2103 6.60352 58.8613 7.24642 58.8613 7.84863C58.8613 8.41829 58.609 9.02051 58.1045 9.65527C57.5999 10.2738 57.0628 11.0062 56.4932 11.8525C55.9398 12.6989 55.3376 13.6592 54.6865 14.7334C54.0518 15.7913 53.4089 16.9225 52.7578 18.127C52.1068 19.3151 51.5208 20.4707 51 21.5938C49.8118 24.1491 49.2178 25.8825 49.2178 26.7939C49.2178 27.6891 49.2829 28.3402 49.4131 28.7471C49.5596 29.154 49.7305 29.4551 49.9258 29.6504C50.235 29.9596 50.7314 30.1143 51.415 30.1143C52.0986 30.1143 52.7904 29.9922 53.4902 29.748C54.2064 29.4876 54.8981 29.1702 55.5654 28.7959C56.249 28.4053 56.9163 27.9902 57.5674 27.5508C58.2184 27.0951 58.8532 26.6719 59.4717 26.2812C60.904 25.4023 61.9619 24.9629 62.6455 24.9629C63.3291 24.9629 63.7848 25.1257 64.0127 25.4512C64.2568 25.7604 64.3789 26.1673 64.3789 26.6719C64.3789 27.1764 64.1673 27.86 63.7441 28.7227C63.321 29.569 62.7269 30.4479 61.9619 31.3594C61.1969 32.2708 60.2936 33.1742 59.252 34.0693C58.2103 34.9482 57.071 35.7376 55.834 36.4375C53.0508 37.9837 50.3245 38.7568 47.6553 38.7568C45.2464 38.7568 43.1224 37.9105 41.2832 36.2178C39.2324 34.346 38.207 31.929 38.207 28.9668C38.207 28.8203 38.207 28.6738 38.207 28.5273C38.207 28.3809 38.2152 28.2262 38.2314 28.0635L28.002 29.3574C25.1211 32.1895 21.638 34.6146 17.5527 36.6328C13.4512 38.6348 10.0251 39.6357 7.27441 39.6357ZM86.4004 23.1562C86.4004 22.668 86.0586 22.4238 85.375 22.4238C84.6914 22.4238 83.9427 22.554 83.1289 22.8145C82.3151 23.0749 81.4199 23.4167 80.4434 23.8398C79.4668 24.263 78.4495 24.7432 77.3916 25.2803C76.3337 25.8174 75.3164 26.3626 74.3398 26.916C72.2402 28.1042 70.8079 29.0156 70.043 29.6504C69.2943 30.2689 68.6758 30.8141 68.1875 31.2861C67.7155 31.7581 67.2435 32.1895 66.7715 32.5801C65.6647 33.4915 64.8265 33.9473 64.2568 33.9473C63.6872 33.9473 63.1745 33.8577 62.7188 33.6787C62.263 33.4834 61.848 33.2148 61.4736 32.873C60.5947 32.043 60.1553 31.0583 60.1553 29.9189C60.1553 27.9007 61.9375 23.9375 65.502 18.0293C67.0319 15.4902 68.513 13.2604 69.9453 11.3398C71.3776 9.40299 72.7529 7.75911 74.0713 6.4082C75.3896 5.04102 76.651 3.88542 77.8555 2.94141C80.3294 1.00456 82.2988 0.0361328 83.7637 0.0361328C84.1868 0.0361328 84.5368 0.190755 84.8135 0.5C85.0902 0.809245 85.2285 1.1429 85.2285 1.50098C85.2285 2.31478 84.9681 3.16113 84.4473 4.04004C83.9427 4.90267 83.2673 5.99316 82.4209 7.31152L77.2207 15.1973C75.5931 17.7038 74.7386 19.1117 74.6572 19.4209C74.5921 19.7139 74.5596 19.9255 74.5596 20.0557C74.5596 20.1859 74.6491 20.251 74.8281 20.251C75.0072 20.251 75.5117 20.0638 76.3418 19.6895C76.3418 19.6895 77.3835 19.2174 79.4668 18.2734C84.1706 16.2227 87.971 15.1973 90.8682 15.1973C92.512 15.1973 93.8874 15.9541 94.9941 17.4678C96.0195 18.8838 96.5322 20.4137 96.5322 22.0576C96.5322 23.7015 96.2799 25.1175 95.7754 26.3057C95.2708 27.4938 94.5221 28.4297 93.5293 29.1133C92.5527 29.7969 91.5762 30.4316 90.5996 31.0176L87.4746 32.873C81.5664 36.1771 77.2777 37.8291 74.6084 37.8291C70.9137 37.8291 69.0664 36.8688 69.0664 34.9482C69.0664 33.9066 69.571 33.1335 70.5801 32.6289C79.8737 27.5996 84.724 24.9548 85.1309 24.6943C85.9772 24.1572 86.4004 23.6445 86.4004 23.1562ZM122.387 22.9609C122.387 23.8398 123.135 24.2793 124.633 24.2793C125.74 24.2793 127.188 23.7422 128.979 22.668L130.932 21.5938C131.534 21.252 132.055 21.0811 132.494 21.0811C132.95 21.0811 133.308 21.2194 133.568 21.4961C133.829 21.7728 133.959 22.1553 133.959 22.6436C133.959 23.1318 133.796 23.7015 133.471 24.3525C133.145 24.9873 132.698 25.6628 132.128 26.3789C131.558 27.0788 130.891 27.7786 130.126 28.4785C129.361 29.1621 128.539 29.7806 127.66 30.334C125.707 31.5547 123.892 32.165 122.216 32.165C120.442 32.165 119.026 31.8639 117.968 31.2617C117.642 31.0664 117.325 30.863 117.016 30.6514C115.274 32.637 112.751 34.46 109.447 36.1201C105.932 37.8779 102.864 38.7568 100.243 38.7568C97.4925 38.7568 95.3197 37.6745 93.7246 35.5098C92.4388 33.752 91.7959 31.9697 91.7959 30.1631C91.7959 27.5589 93.1875 25.0768 95.9707 22.7168C98.0215 20.9915 99.999 19.6813 101.903 18.7861C103.824 17.891 105.557 17.1992 107.104 16.7109C110.375 15.6855 113.321 15.1729 115.941 15.1729C117.113 15.1729 118.155 15.4007 119.066 15.8564C119.994 16.2959 120.678 16.7435 121.117 17.1992C122.159 18.2246 122.68 19.5348 122.68 21.1299C122.68 21.6019 122.631 21.9681 122.533 22.2285C122.436 22.4889 122.387 22.7331 122.387 22.9609ZM102.416 27.5752L102.392 27.6484V27.6729C102.392 28.3727 102.546 28.8285 102.855 29.04C103.604 29.4958 104.394 29.6178 105.224 29.4062C106.054 29.1784 106.843 28.9017 107.592 28.5762C109.447 27.7786 111.124 26.7695 112.621 25.5488C112.361 25.028 112.23 24.4909 112.23 23.9375C112.23 22.7656 112.743 21.5938 113.769 20.4219C112.466 20.4219 110.709 21.0322 108.495 22.2529C106.054 23.6038 104.223 24.9954 103.002 26.4277C102.611 26.916 102.416 27.2985 102.416 27.5752ZM159.521 25.7197C159.521 27.3636 160.245 28.1855 161.693 28.1855C163.142 28.1855 165.648 26.7939 169.213 24.0107L171.361 22.2529C172.777 21.0811 174.128 20.4951 175.414 20.4951C175.886 20.4951 176.195 20.6253 176.342 20.8857C176.488 21.1299 176.562 21.4473 176.562 21.8379C176.562 22.2122 176.488 22.611 176.342 23.0342C176.212 23.4411 176.024 23.8724 175.78 24.3281C175.243 25.3535 174.722 26.151 174.218 26.7207C173.713 27.2904 173.119 27.8844 172.436 28.5029C171.768 29.1051 170.971 29.7887 170.043 30.5537C169.115 31.3024 168.09 32.0755 166.967 32.873C165.844 33.6543 164.713 34.3704 163.573 35.0215C161.002 36.5189 158.886 37.2676 157.226 37.2676C155.24 37.2676 153.686 36.5677 152.562 35.168C151.505 33.8659 150.91 32.1243 150.78 29.9434C147.851 32.9544 144.75 35.2738 141.479 36.9014C139.477 37.8942 137.784 38.3906 136.4 38.3906C135.017 38.3906 133.804 38.2279 132.763 37.9023C131.721 37.5605 130.81 37.056 130.028 36.3887C128.336 34.9727 127.489 33.0033 127.489 30.4805C127.489 26.8672 128.783 23.3841 131.371 20.0312C132.185 18.9896 133.096 18.0781 134.105 17.2969C136.286 15.9297 138.598 15.2461 141.039 15.2461C142.113 15.2461 142.878 15.5798 143.334 16.2471C143.513 16.5075 143.603 16.8493 143.603 17.2725C143.603 17.6794 143.48 18.1595 143.236 18.7129C143.008 19.25 142.724 19.8197 142.382 20.4219C142.04 21.0078 141.658 21.6182 141.234 22.2529C140.827 22.8877 140.453 23.5062 140.111 24.1084C139.298 25.5407 138.891 26.5742 138.891 27.209C138.891 27.8275 139.07 28.2832 139.428 28.5762C139.786 28.8691 140.225 29.0156 140.746 29.0156C141.902 29.0156 142.886 28.7389 143.7 28.1855C144.514 27.6159 145.32 26.9648 146.117 26.2324L148.412 23.9863L150.634 21.6914C152.213 20.0801 153.409 19.0791 154.223 18.6885C155.053 18.2816 155.655 18.127 156.029 18.2246C156.404 18.3223 156.786 18.5013 157.177 18.7617C157.567 19.0059 157.95 19.307 158.324 19.665C159.203 20.5114 159.691 21.2764 159.789 21.96C159.822 22.3994 159.781 23.0586 159.667 23.9375C159.569 24.8001 159.521 25.3942 159.521 25.7197ZM198.241 21.2764C199.836 21.2764 200.634 21.8298 200.634 22.9365C200.634 23.9945 199.885 25.3617 198.388 27.0381L197.191 28.2832C195.743 29.7643 194.05 31.221 192.113 32.6533C190.193 34.0856 188.5 35.2168 187.035 36.0469C183.633 37.9349 180.549 38.8789 177.782 38.8789C175.178 38.8789 173.054 38.0977 171.41 36.5352C169.994 35.1842 169.286 33.7601 169.286 32.2627C169.286 30.7653 169.433 29.276 169.726 27.7949C170.019 26.3138 170.401 24.8652 170.873 23.4492C171.817 20.5684 172.851 18.1188 173.974 16.1006C174.267 15.5472 174.413 15.1891 174.413 15.0264H171.264C170.076 15.0264 169.156 14.7497 168.505 14.1963C167.854 13.6429 167.528 13.0163 167.528 12.3164C167.528 11.6165 167.659 11.1038 167.919 10.7783C168.179 10.4528 168.505 10.2168 168.896 10.0703C169.449 9.84245 170.263 9.72852 171.337 9.72852L177.318 9.75293C177.449 9.7041 177.709 9.35417 178.1 8.70312L179.589 6.13965C180.224 5.00033 180.858 4.16211 181.493 3.625C182.144 3.08789 182.901 2.81934 183.764 2.81934C184.643 2.81934 185.375 2.90072 185.961 3.06348C186.563 3.22624 187.068 3.42969 187.475 3.67383C188.272 4.19466 188.671 4.76432 188.671 5.38281C188.671 5.64323 188.581 5.99316 188.402 6.43262L187.035 9.75293L198.632 9.72852C199.641 9.72852 200.146 10.2493 200.146 11.291C200.146 13.765 197.94 15.002 193.529 15.002L184.594 15.0264C184.398 15.124 184.065 15.596 183.593 16.4424L182.494 18.4688C182.217 18.9733 182.022 19.3558 181.908 19.6162L181.371 20.8125C180.281 23.2702 179.735 25.0443 179.735 26.1348C179.735 27.2253 180.02 28.1367 180.59 28.8691C181.176 29.6016 181.949 29.9678 182.909 29.9678C183.869 29.9678 184.805 29.7806 185.717 29.4062C186.645 29.0319 187.548 28.5762 188.427 28.0391C190.022 27.0462 191.275 26.1266 192.187 25.2803C193.098 24.4339 193.855 23.791 194.457 23.3516C194.457 23.3516 195.027 22.9528 196.166 22.1553C197.045 21.5693 197.737 21.2764 198.241 21.2764ZM255.492 26.4521C255.492 28.096 256.005 28.918 257.03 28.918C257.486 28.918 258.275 28.5599 259.398 27.8438C261.612 26.3626 263.142 25.321 263.988 24.7188L265.941 23.2783C266.397 22.9365 266.845 22.5866 267.284 22.2285C267.74 21.8704 268.293 21.5612 268.944 21.3008C269.595 21.0241 270.124 20.8857 270.531 20.8857C270.938 20.8857 271.199 21.0322 271.312 21.3252C271.426 21.6182 271.483 21.9762 271.483 22.3994C271.483 22.8226 271.394 23.2539 271.215 23.6934C271.052 24.1165 270.832 24.5723 270.556 25.0605C269.774 26.4115 268.977 27.4775 268.163 28.2588C267.349 29.04 266.641 29.6829 266.039 30.1875L264.013 31.8477C260.22 34.8099 256.99 36.7386 254.32 37.6338C253.588 37.8779 252.725 38 251.732 38C250.756 38 249.812 37.764 248.9 37.292C247.989 36.82 247.265 36.2096 246.728 35.4609C245.767 34.0938 245.287 32.2383 245.287 29.8945C245.287 28.9017 245.368 27.9333 245.531 26.9893C241.967 30.8141 238.899 33.5404 236.327 35.168C232.925 37.3164 229.361 38.3906 225.634 38.3906C223.453 38.3906 221.467 37.6501 219.677 36.1689C217.772 34.5902 216.82 32.694 216.82 30.4805C216.82 26.265 219.587 20.3242 225.121 12.6582L227.489 9.48438C229.117 7.44987 230.395 5.99316 231.322 5.11426C231.534 4.9515 231.819 4.87012 232.177 4.87012C233.365 4.87012 234.708 5.47233 236.205 6.67676C237.816 7.96257 238.549 9.16699 238.402 10.29C238.272 11.6247 237.426 13.293 235.863 15.2949C235.18 16.1576 234.447 17.0365 233.666 17.9316C232.901 18.8105 232.169 19.7057 231.469 20.6172C229.857 22.7331 228.954 24.5804 228.759 26.1592C228.645 27.0218 228.979 27.6647 229.76 28.0879C229.988 28.2181 230.435 28.2832 231.103 28.2832C231.77 28.2832 232.681 28.0716 233.837 27.6484C235.009 27.209 236.189 26.6393 237.377 25.9395C238.581 25.2233 239.77 24.4176 240.941 23.5225C242.13 22.6273 243.253 21.7158 244.311 20.7881C245.385 19.8604 246.369 18.957 247.265 18.0781L249.584 15.71C254.402 10.3714 257.087 7.41732 257.641 6.84766C258.845 5.61068 259.586 4.99219 259.862 4.99219C260.139 4.99219 260.448 5.06543 260.79 5.21191C261.148 5.3584 261.522 5.55371 261.913 5.79785C262.32 6.04199 262.719 6.31868 263.109 6.62793C263.516 6.93717 263.891 7.27083 264.232 7.62891C264.965 8.39388 265.364 9.06934 265.429 9.65527C265.526 10.0133 265.29 10.7295 264.721 11.8037C264.167 12.8617 263.565 13.765 262.914 14.5137L260.766 17.0039C257.82 20.3893 256.127 23.0016 255.688 24.8408C255.557 25.3942 255.492 25.9313 255.492 26.4521ZM282.25 14.2207C282.413 14.5462 282.494 14.9775 282.494 15.5146C282.494 16.0355 282.226 16.6296 281.688 17.2969C282.112 17.7363 282.649 18.249 283.3 18.835C283.967 19.4046 284.61 20.0312 285.229 20.7148C286.726 22.3913 287.475 23.9945 287.475 25.5244C287.475 26.5335 286.783 27.7624 285.399 29.2109C284.976 29.6667 284.512 30.0898 284.008 30.4805C285.701 29.8294 287.735 28.5355 290.111 26.5986L292.968 24.2549C294.628 22.8714 295.735 22.0739 296.288 21.8623C296.858 21.6507 297.37 21.5449 297.826 21.5449C298.282 21.5449 298.721 21.6589 299.145 21.8867C299.584 22.1146 299.804 22.4889 299.804 23.0098C299.804 23.5143 299.722 24.0107 299.56 24.499C299.397 24.971 299.201 25.4105 298.974 25.8174C298.648 26.4033 298.176 27.0055 297.558 27.624C295.849 29.2354 294.188 30.7165 292.577 32.0674C290.982 33.402 289.33 34.5495 287.621 35.5098C284.008 37.528 280.004 38.5371 275.609 38.5371C273.152 38.5371 271.02 37.9105 269.213 36.6572C268.464 36.1364 267.886 35.5993 267.479 35.0459C267.089 34.4762 266.894 34.0368 266.894 33.7275C266.894 33.402 266.999 33.0684 267.211 32.7266C267.423 32.3685 267.707 32.0023 268.065 31.6279C268.424 31.2536 268.83 30.8792 269.286 30.5049C269.758 30.1305 270.238 29.7969 270.727 29.5039C271.866 28.8366 272.712 28.5029 273.266 28.5029C273.835 28.5029 274.267 28.5762 274.56 28.7227C274.853 28.8529 275.121 28.9993 275.365 29.1621C276.033 29.6178 276.505 29.8457 276.781 29.8457C277.449 29.8457 277.782 29.39 277.782 28.4785C277.782 27.6322 277.335 26.6149 276.439 25.4268C276.081 24.9385 275.707 24.4583 275.316 23.9863C274.926 23.5143 274.6 23.0505 274.34 22.5947C273.819 23.1969 273.168 23.8154 272.387 24.4502L270.019 26.4521C268.375 27.8682 266.853 28.5436 265.453 28.4785C264.639 28.4134 264.232 27.5101 264.232 25.7686C264.232 25.4593 264.257 25.1582 264.306 24.8652C264.387 24.3607 264.883 23.7503 265.795 23.0342C266.706 22.318 267.366 21.8298 267.772 21.5693C268.196 21.2926 268.554 21.0485 268.847 20.8369L271.435 19.0791C271.435 17.4189 272.395 15.8971 274.315 14.5137C276.138 13.2116 277.945 12.5605 279.735 12.5605C280.875 12.5605 281.713 13.1139 282.25 14.2207Z" fill="#02126A"/>
</svg>
