<svg width="260" height="38" viewBox="0 0 260 38" fill="none" xmlns="http://www.w3.org/2000/svg">
<path d="M13.1348 24.5254C13.1348 27.2435 15.8447 28.6025 21.2646 28.6025C24.9268 28.6025 29.5247 27.2191 35.0586 24.4521L37.5488 23.1338C41.3249 21.2132 43.457 20.7982 43.9453 21.8887C44.0755 22.1816 44.1406 22.5234 44.1406 22.9141C44.1406 23.2884 43.9779 23.679 43.6523 24.0859C43.3431 24.4766 42.9199 24.916 42.3828 25.4043C41.8457 25.8763 41.2191 26.3809 40.5029 26.918C39.7868 27.4388 39.0299 27.9596 38.2324 28.4805L35.8398 29.9697C35.026 30.458 34.1471 30.9382 33.2031 31.4102L29.6387 33.168C24.056 35.7721 18.7907 37.0742 13.8428 37.0742C9.51335 37.0742 6.1849 36.2197 3.85742 34.5107C1.77409 32.9971 0.732422 31.0439 0.732422 28.6514C0.732422 25.3473 2.22168 22.0189 5.2002 18.666C7.77181 15.7852 11.2956 13.0508 15.7715 10.4629C19.6777 8.20052 23.8444 6.34505 28.2715 4.89648C32.4544 3.51302 35.848 2.82129 38.4521 2.82129C39.0055 2.82129 39.4694 3.00033 39.8438 3.3584C40.5273 3.99316 40.8691 4.61979 40.8691 5.23828C40.8691 7.64714 39.8682 9.59212 37.8662 11.0732C36.1572 12.3265 34.1634 12.9531 31.8848 12.9531C29.6061 12.9531 27.8971 12.7253 26.7578 12.2695C22.5098 13.9134 19.0592 16.1188 16.4062 18.8857C15.2995 20.0413 14.4775 21.1237 13.9404 22.1328C13.4033 23.1419 13.1348 23.9395 13.1348 24.5254ZM65.918 20.9609C65.918 21.8398 66.6667 22.2793 68.1641 22.2793C69.2708 22.2793 70.7194 21.7422 72.5098 20.668L74.4629 19.5938C75.0651 19.252 75.5859 19.0811 76.0254 19.0811C76.4811 19.0811 76.8392 19.2194 77.0996 19.4961C77.36 19.7728 77.4902 20.1553 77.4902 20.6436C77.4902 21.1318 77.3275 21.7015 77.002 22.3525C76.6764 22.9873 76.2288 23.6628 75.6592 24.3789C75.0895 25.0788 74.4222 25.7786 73.6572 26.4785C72.8923 27.1621 72.0703 27.7806 71.1914 28.334C69.2383 29.5547 67.4235 30.165 65.7471 30.165C63.973 30.165 62.557 29.8639 61.499 29.2617C61.1735 29.0664 60.8561 28.863 60.5469 28.6514C58.8053 30.637 56.2826 32.46 52.9785 34.1201C49.4629 35.8779 46.3949 36.7568 43.7744 36.7568C41.0238 36.7568 38.8509 35.6745 37.2559 33.5098C35.9701 31.752 35.3271 29.9697 35.3271 28.1631C35.3271 25.5589 36.7188 23.0768 39.502 20.7168C41.5527 18.9915 43.5303 17.6813 45.4346 16.7861C47.3551 15.891 49.0885 15.1992 50.6348 14.7109C53.9062 13.6855 56.8522 13.1729 59.4727 13.1729C60.6445 13.1729 61.6862 13.4007 62.5977 13.8564C63.5254 14.2959 64.209 14.7435 64.6484 15.1992C65.6901 16.2246 66.2109 17.5348 66.2109 19.1299C66.2109 19.6019 66.1621 19.9681 66.0645 20.2285C65.9668 20.4889 65.918 20.7331 65.918 20.9609ZM45.9473 25.5752L45.9229 25.6484V25.6729C45.9229 26.3727 46.0775 26.8285 46.3867 27.04C47.1354 27.4958 47.9248 27.6178 48.7549 27.4062C49.585 27.1784 50.3743 26.9017 51.123 26.5762C52.9785 25.7786 54.6549 24.7695 56.1523 23.5488C55.8919 23.028 55.7617 22.4909 55.7617 21.9375C55.7617 20.7656 56.2744 19.5938 57.2998 18.4219C55.9977 18.4219 54.2399 19.0322 52.0264 20.2529C49.585 21.6038 47.7539 22.9954 46.5332 24.4277C46.1426 24.916 45.9473 25.2985 45.9473 25.5752ZM100.415 22.8896C100.415 24.3708 100.846 25.1113 101.709 25.1113C103.825 25.1113 106.576 23.679 109.961 20.8145L110.62 20.2529C111.938 19.374 113.005 18.9346 113.818 18.9346C114.648 18.9346 115.169 19.0566 115.381 19.3008C115.609 19.5449 115.723 19.9355 115.723 20.4727C115.723 21.6771 115.112 22.9548 113.892 24.3057C112.069 26.5192 109.57 28.6188 106.396 30.6045C102.718 32.9157 99.4222 34.0713 96.5088 34.0713C94.4743 34.0713 93.1966 32.9401 92.6758 30.6777C92.5293 30.0918 92.4235 29.5303 92.3584 28.9932C92.1956 27.6911 92.0247 26.9668 91.8457 26.8203C91.6667 26.6738 91.3086 26.6901 90.7715 26.8691C90.2507 27.0319 89.624 27.3167 88.8916 27.7236C88.1755 28.1143 87.3779 28.5944 86.499 29.1641C81.8441 32.2565 79.1667 34.0225 78.4668 34.4619C76.7904 35.5036 75.6592 36.0244 75.0732 36.0244C74.4873 36.0244 73.9095 35.9023 73.3398 35.6582C72.7865 35.4141 72.2982 35.1048 71.875 34.7305C70.9961 33.9004 70.5566 33.054 70.5566 32.1914C70.5566 27.2598 71.6309 22.9466 73.7793 19.252C75.2116 16.7617 76.9694 15.0365 79.0527 14.0762C80.1107 13.5716 81.25 13.3193 82.4707 13.3193C84.7005 13.3193 85.8154 14.0518 85.8154 15.5166C85.8154 16.4118 85.2865 17.8766 84.2285 19.9111L83.4961 21.3516C82.9753 22.3444 82.723 22.9059 82.7393 23.0361C82.8369 23.5244 83.0566 23.7686 83.3984 23.7686C83.7728 23.7686 84.3262 23.4919 85.0586 22.9385L89.5508 19.5938L91.7969 18.0312C94.3848 16.3385 96.2891 15.4922 97.5098 15.4922C98.1608 15.4922 98.7549 15.7526 99.292 16.2734C100.285 17.2174 100.781 18.0394 100.781 18.7393C100.781 18.9671 100.757 19.2438 100.708 19.5693C100.675 19.8949 100.635 20.2448 100.586 20.6191L100.488 21.7666C100.439 22.1572 100.415 22.5316 100.415 22.8896ZM137.622 19.2764C139.217 19.2764 140.015 19.8298 140.015 20.9365C140.015 21.9945 139.266 23.3617 137.769 25.0381L136.572 26.2832C135.124 27.7643 133.431 29.221 131.494 30.6533C129.574 32.0856 127.881 33.2168 126.416 34.0469C123.014 35.9349 119.93 36.8789 117.163 36.8789C114.559 36.8789 112.435 36.0977 110.791 34.5352C109.375 33.1842 108.667 31.7601 108.667 30.2627C108.667 28.7653 108.813 27.276 109.106 25.7949C109.399 24.3138 109.782 22.8652 110.254 21.4492C111.198 18.5684 112.231 16.1188 113.354 14.1006C113.647 13.5472 113.794 13.1891 113.794 13.0264H110.645C109.456 13.0264 108.537 12.7497 107.886 12.1963C107.235 11.6429 106.909 11.0163 106.909 10.3164C106.909 9.61654 107.039 9.10384 107.3 8.77832C107.56 8.4528 107.886 8.2168 108.276 8.07031C108.83 7.84245 109.644 7.72852 110.718 7.72852L116.699 7.75293C116.829 7.7041 117.09 7.35417 117.48 6.70312L118.97 4.13965C119.604 3.00033 120.239 2.16211 120.874 1.625C121.525 1.08789 122.282 0.819336 123.145 0.819336C124.023 0.819336 124.756 0.900716 125.342 1.06348C125.944 1.22624 126.449 1.42969 126.855 1.67383C127.653 2.19466 128.052 2.76432 128.052 3.38281C128.052 3.64323 127.962 3.99316 127.783 4.43262L126.416 7.75293L138.013 7.72852C139.022 7.72852 139.526 8.24935 139.526 9.29102C139.526 11.765 137.321 13.002 132.91 13.002L123.975 13.0264C123.779 13.124 123.446 13.596 122.974 14.4424L121.875 16.4688C121.598 16.9733 121.403 17.3558 121.289 17.6162L120.752 18.8125C119.661 21.2702 119.116 23.0443 119.116 24.1348C119.116 25.2253 119.401 26.1367 119.971 26.8691C120.557 27.6016 121.33 27.9678 122.29 27.9678C123.25 27.9678 124.186 27.7806 125.098 27.4062C126.025 27.0319 126.929 26.5762 127.808 26.0391C129.403 25.0462 130.656 24.1266 131.567 23.2803C132.479 22.4339 133.236 21.791 133.838 21.3516C133.838 21.3516 134.408 20.9528 135.547 20.1553C136.426 19.5693 137.118 19.2764 137.622 19.2764ZM177.954 17.665C178.475 17.665 178.735 18.1045 178.735 18.9834C178.735 20.4971 177.677 22.4583 175.562 24.8672L174.17 26.2832C169.954 30.4987 165.983 33.3063 162.256 34.7061C159.945 35.5687 158.285 35.528 157.275 34.584C156.445 33.7865 155.786 32.5007 155.298 30.7266L154.712 28.6025L149.512 31.8008L146.509 33.5098C142.928 35.4629 140.243 36.4395 138.452 36.4395C136.157 36.4395 134.245 35.5524 132.715 33.7783C131.25 32.1019 130.518 30.1569 130.518 27.9434C130.518 25.7624 131.388 23.8174 133.13 22.1084C135.62 19.667 139.551 17.429 144.922 15.3945C150 13.4902 154.102 12.5381 157.227 12.5381C158.285 12.5381 158.813 13.0589 158.813 14.1006C158.813 14.8167 158.675 15.3538 158.398 15.7119C158.122 16.07 157.552 16.4362 156.689 16.8105L153.613 18.1289C149.056 20.0332 145.719 22.0107 143.604 24.0615C143.001 24.6312 142.7 25.1846 142.7 25.7217C142.7 26.2588 143.132 26.5273 143.994 26.5273C144.84 26.5273 146.81 25.6159 149.902 23.793L151.929 22.5967C155.07 20.7087 157.699 19.7646 159.814 19.7646C161.605 19.7646 162.793 20.554 163.379 22.1328C163.525 22.556 163.664 22.9873 163.794 23.4268C163.924 23.8499 164.054 24.2324 164.185 24.5742C164.478 25.3717 164.738 25.7705 164.966 25.7705C165.21 25.7705 165.552 25.6566 165.991 25.4287C166.431 25.1846 166.911 24.8835 167.432 24.5254C167.969 24.151 168.522 23.7441 169.092 23.3047L172.046 20.9365C174.666 18.7555 176.636 17.665 177.954 17.665ZM207.642 20.2529C207.642 21.0179 206.641 22.499 204.639 24.6963C202.588 26.9261 200.578 28.7409 198.608 30.1406C194.8 32.9727 190.576 34.9095 185.938 35.9512C184.18 36.3581 182.511 36.5615 180.933 36.5615C179.37 36.5615 178.068 36.4232 177.026 36.1465C176.001 35.8861 175.073 35.5361 174.243 35.0967C173.429 34.641 172.721 34.1201 172.119 33.5342C171.517 32.9482 171.012 32.3298 170.605 31.6787C169.808 30.4092 169.409 29.2373 169.409 28.1631C169.409 27.0889 169.531 26.1449 169.775 25.3311C170.003 24.5173 170.329 23.7441 170.752 23.0117C172.233 20.3424 175.212 17.9824 179.688 15.9316C183.219 14.2878 186.589 13.2217 189.795 12.7334C191.178 12.5218 192.163 12.416 192.749 12.416C193.335 12.416 193.823 12.4811 194.214 12.6113C194.621 12.7253 194.971 12.888 195.264 13.0996C195.915 13.5716 196.24 14.2145 196.24 15.0283C196.24 15.8421 196.029 16.6152 195.605 17.3477C195.182 18.0638 194.645 18.666 193.994 19.1543C192.725 20.0983 191.309 20.5703 189.746 20.5703C187.614 20.5703 185.856 20.2936 184.473 19.7402C183.512 20.082 182.699 20.7087 182.031 21.6201C181.478 22.3688 181.201 23.0443 181.201 23.6465C181.201 24.2324 181.331 24.8102 181.592 25.3799C181.868 25.9333 182.251 26.4297 182.739 26.8691C183.813 27.8132 185.107 28.2852 186.621 28.2852C190.137 28.2852 194.23 26.4215 198.901 22.6943L201.123 20.9609C203.467 19.1706 205.135 18.2754 206.128 18.2754C207.137 18.2754 207.642 18.9346 207.642 20.2529ZM228.931 19.2764C230.526 19.2764 231.323 19.8298 231.323 20.9365C231.323 21.9945 230.575 23.3617 229.077 25.0381L227.881 26.2832C226.432 27.7643 224.74 29.221 222.803 30.6533C220.882 32.0856 219.189 33.2168 217.725 34.0469C214.323 35.9349 211.239 36.8789 208.472 36.8789C205.868 36.8789 203.743 36.0977 202.1 34.5352C200.684 33.1842 199.976 31.7601 199.976 30.2627C199.976 28.7653 200.122 27.276 200.415 25.7949C200.708 24.3138 201.09 22.8652 201.562 21.4492C202.507 18.5684 203.54 16.1188 204.663 14.1006C204.956 13.5472 205.103 13.1891 205.103 13.0264H201.953C200.765 13.0264 199.845 12.7497 199.194 12.1963C198.543 11.6429 198.218 11.0163 198.218 10.3164C198.218 9.61654 198.348 9.10384 198.608 8.77832C198.869 8.4528 199.194 8.2168 199.585 8.07031C200.138 7.84245 200.952 7.72852 202.026 7.72852L208.008 7.75293C208.138 7.7041 208.398 7.35417 208.789 6.70312L210.278 4.13965C210.913 3.00033 211.548 2.16211 212.183 1.625C212.834 1.08789 213.59 0.819336 214.453 0.819336C215.332 0.819336 216.064 0.900716 216.65 1.06348C217.253 1.22624 217.757 1.42969 218.164 1.67383C218.962 2.19466 219.36 2.76432 219.36 3.38281C219.36 3.64323 219.271 3.99316 219.092 4.43262L217.725 7.75293L229.321 7.72852C230.33 7.72852 230.835 8.24935 230.835 9.29102C230.835 11.765 228.63 13.002 224.219 13.002L215.283 13.0264C215.088 13.124 214.754 13.596 214.282 14.4424L213.184 16.4688C212.907 16.9733 212.712 17.3558 212.598 17.6162L212.061 18.8125C210.97 21.2702 210.425 23.0443 210.425 24.1348C210.425 25.2253 210.71 26.1367 211.279 26.8691C211.865 27.6016 212.638 27.9678 213.599 27.9678C214.559 27.9678 215.495 27.7806 216.406 27.4062C217.334 27.0319 218.237 26.5762 219.116 26.0391C220.711 25.0462 221.965 24.1266 222.876 23.2803C223.787 22.4339 224.544 21.791 225.146 21.3516C225.146 21.3516 225.716 20.9528 226.855 20.1553C227.734 19.5693 228.426 19.2764 228.931 19.2764ZM242.334 12.2207C242.497 12.5462 242.578 12.9775 242.578 13.5146C242.578 14.0355 242.31 14.6296 241.772 15.2969C242.196 15.7363 242.733 16.249 243.384 16.835C244.051 17.4046 244.694 18.0312 245.312 18.7148C246.81 20.3913 247.559 21.9945 247.559 23.5244C247.559 24.5335 246.867 25.7624 245.483 27.2109C245.06 27.6667 244.596 28.0898 244.092 28.4805C245.785 27.8294 247.819 26.5355 250.195 24.5986L253.052 22.2549C254.712 20.8714 255.819 20.0739 256.372 19.8623C256.942 19.6507 257.454 19.5449 257.91 19.5449C258.366 19.5449 258.805 19.6589 259.229 19.8867C259.668 20.1146 259.888 20.4889 259.888 21.0098C259.888 21.5143 259.806 22.0107 259.644 22.499C259.481 22.971 259.285 23.4105 259.058 23.8174C258.732 24.4033 258.26 25.0055 257.642 25.624C255.933 27.2354 254.272 28.7165 252.661 30.0674C251.066 31.402 249.414 32.5495 247.705 33.5098C244.092 35.528 240.088 36.5371 235.693 36.5371C233.236 36.5371 231.104 35.9105 229.297 34.6572C228.548 34.1364 227.97 33.5993 227.563 33.0459C227.173 32.4762 226.978 32.0368 226.978 31.7275C226.978 31.402 227.083 31.0684 227.295 30.7266C227.507 30.3685 227.791 30.0023 228.149 29.6279C228.507 29.2536 228.914 28.8792 229.37 28.5049C229.842 28.1305 230.322 27.7969 230.811 27.5039C231.95 26.8366 232.796 26.5029 233.35 26.5029C233.919 26.5029 234.351 26.5762 234.644 26.7227C234.937 26.8529 235.205 26.9993 235.449 27.1621C236.117 27.6178 236.589 27.8457 236.865 27.8457C237.533 27.8457 237.866 27.39 237.866 26.4785C237.866 25.6322 237.419 24.6149 236.523 23.4268C236.165 22.9385 235.791 22.4583 235.4 21.9863C235.01 21.5143 234.684 21.0505 234.424 20.5947C233.903 21.1969 233.252 21.8154 232.471 22.4502L230.103 24.4521C228.459 25.8682 226.937 26.5436 225.537 26.4785C224.723 26.4134 224.316 25.5101 224.316 23.7686C224.316 23.4593 224.341 23.1582 224.39 22.8652C224.471 22.3607 224.967 21.7503 225.879 21.0342C226.79 20.318 227.45 19.8298 227.856 19.5693C228.28 19.2926 228.638 19.0485 228.931 18.8369L231.519 17.0791C231.519 15.4189 232.479 13.8971 234.399 12.5137C236.222 11.2116 238.029 10.5605 239.819 10.5605C240.959 10.5605 241.797 11.1139 242.334 12.2207Z" fill="#02126A"/>
</svg>
