<svg width="34" height="34" viewBox="0 0 34 34" fill="none" xmlns="http://www.w3.org/2000/svg">
<g clip-path="url(#clip0_95_77)">
<path d="M17 21.25C19.3472 21.25 21.25 19.3472 21.25 17C21.25 14.6528 19.3472 12.75 17 12.75C14.6528 12.75 12.75 14.6528 12.75 17C12.75 19.3472 14.6528 21.25 17 21.25Z" fill="#8195C7"/>
<path d="M22.8438 3.71875H11.1562C9.18439 3.72098 7.29393 4.50529 5.89961 5.89961C4.50529 7.29393 3.72098 9.18439 3.71875 11.1562V22.8438C3.72098 24.8156 4.50529 26.7061 5.89961 28.1004C7.29393 29.4947 9.18439 30.279 11.1562 30.2812H22.8438C24.8156 30.279 26.7061 29.4947 28.1004 28.1004C29.4947 26.7061 30.279 24.8156 30.2812 22.8438V11.1562C30.279 9.18439 29.4947 7.29393 28.1004 5.89961C26.7061 4.50529 24.8156 3.72098 22.8438 3.71875ZM17 23.375C15.7391 23.375 14.5066 23.0011 13.4582 22.3006C12.4099 21.6001 11.5928 20.6045 11.1103 19.4396C10.6278 18.2747 10.5015 16.9929 10.7475 15.7563C10.9935 14.5197 11.6006 13.3838 12.4922 12.4922C13.3838 11.6006 14.5197 10.9935 15.7563 10.7475C16.9929 10.5015 18.2747 10.6278 19.4396 11.1103C20.6045 11.5928 21.6001 12.4099 22.3006 13.4582C23.0011 14.5066 23.375 15.7391 23.375 17C23.3731 18.6902 22.7008 20.3106 21.5057 21.5057C20.3106 22.7008 18.6902 23.3731 17 23.375ZM23.9062 11.6875C23.591 11.6875 23.2829 11.594 23.0208 11.4189C22.7587 11.2438 22.5544 10.9949 22.4338 10.7037C22.3132 10.4124 22.2816 10.092 22.3431 9.78282C22.4046 9.47367 22.5564 9.18969 22.7793 8.9668C23.0022 8.74391 23.2862 8.59212 23.5953 8.53062C23.9045 8.46913 24.2249 8.50069 24.5162 8.62132C24.8074 8.74194 25.0563 8.94622 25.2314 9.20831C25.4065 9.4704 25.5 9.77854 25.5 10.0938C25.5 10.5164 25.3321 10.9218 25.0332 11.2207C24.7343 11.5196 24.3289 11.6875 23.9062 11.6875Z" fill="#8195C7"/>
</g>
<defs>
<clipPath id="clip0_95_77">
<rect width="34" height="34" fill="white"/>
</clipPath>
</defs>
</svg>
