<svg width="27" height="21" viewBox="0 0 27 21" fill="none" xmlns="http://www.w3.org/2000/svg">
<path d="M11.448 18.184C10.5093 19.208 9.464 19.8053 8.312 19.976C7.16 20.104 6.02933 19.912 4.92 19.4C3.85333 18.8453 2.936 18.056 2.168 17.032C1.4 15.9227 0.909334 14.6427 0.696 13.192C0.482667 11.6987 0.717334 10.0987 1.4 8.392C2.12533 6.64266 3.40533 5.04266 5.24 3.592C7.11733 2.09866 9.35733 1.07466 11.96 0.519997C12.4293 0.434664 12.7493 0.413331 12.92 0.455997C13.0907 0.498664 13.1973 0.562664 13.24 0.647999C13.24 1.032 13.112 1.30933 12.856 1.48C11.7893 2.07733 10.8933 2.824 10.168 3.72C9.44267 4.616 8.99467 5.49067 8.824 6.344C8.65333 7.15466 8.84533 7.752 9.4 8.136C9.57067 8.264 9.976 8.62667 10.616 9.224C11.256 9.77867 11.8533 10.5253 12.408 11.464C12.9627 12.36 13.2187 13.384 13.176 14.536C13.176 15.688 12.6 16.904 11.448 18.184ZM24.888 18.184C23.9493 19.208 22.904 19.8053 21.752 19.976C20.6 20.104 19.4693 19.912 18.36 19.4C17.2933 18.8453 16.376 18.056 15.608 17.032C14.84 15.9227 14.3493 14.6427 14.136 13.192C13.9227 11.6987 14.1573 10.0987 14.84 8.392C15.5653 6.64266 16.8453 5.04266 18.68 3.592C20.5573 2.09866 22.7973 1.07466 25.4 0.519997C25.8693 0.434664 26.1893 0.413331 26.36 0.455997C26.5307 0.498664 26.6373 0.562664 26.68 0.647999C26.68 1.032 26.552 1.30933 26.296 1.48C25.2293 2.07733 24.3333 2.824 23.608 3.72C22.8827 4.616 22.4347 5.49067 22.264 6.344C22.0933 7.15466 22.2853 7.752 22.84 8.136C23.0107 8.264 23.416 8.62667 24.056 9.224C24.696 9.77867 25.2933 10.5253 25.848 11.464C26.4027 12.36 26.6587 13.384 26.616 14.536C26.616 15.688 26.04 16.904 24.888 18.184Z" fill="#1A2E62" fill-opacity="0.28"/>
</svg>
