<svg width="247" height="197" viewBox="0 0 247 197" fill="none" xmlns="http://www.w3.org/2000/svg">
<path d="M6.12 53V8.20001H26.728C29.9707 8.20001 32.7013 8.64801 34.92 9.54401C37.1813 10.44 38.888 11.6987 40.04 13.32C41.2347 14.9413 41.832 16.84 41.832 19.016C41.832 21.704 41.2133 23.9227 39.976 25.672C38.7813 27.4213 37.0107 28.5947 34.664 29.192L34.472 27.976C36.4347 28.4453 38.1413 29.2133 39.592 30.28C41.0427 31.304 42.1733 32.5627 42.984 34.056C43.7947 35.5493 44.2 37.256 44.2 39.176C44.2 41.5227 43.7733 43.5707 42.92 45.32C42.0667 47.0267 40.8507 48.456 39.272 49.608C37.736 50.76 35.944 51.6133 33.896 52.168C31.8907 52.7227 29.7147 53 27.368 53H6.12ZM18.92 42.12H26.984C27.7947 42.12 28.4773 41.992 29.032 41.736C29.5867 41.4373 30.0133 41.0107 30.312 40.456C30.6107 39.8587 30.76 39.1547 30.76 38.344C30.76 37.6187 30.5893 37.0213 30.248 36.552C29.9493 36.04 29.5013 35.656 28.904 35.4C28.3067 35.1013 27.56 34.952 26.664 34.952H18.92V42.12ZM18.92 25.736H24.36C25.3413 25.736 26.1307 25.608 26.728 25.352C27.368 25.096 27.816 24.7333 28.072 24.264C28.3707 23.752 28.52 23.1333 28.52 22.408C28.52 21.4267 28.1787 20.6373 27.496 20.04C26.856 19.4 25.768 19.08 24.232 19.08H18.92V25.736Z" fill="#02126A"/>
<path d="M51.422 53V18.76H64.414V53H51.422ZM57.95 12.552C55.646 12.552 53.8327 12.0187 52.51 10.952C51.23 9.88534 50.59 8.37068 50.59 6.40801C50.59 4.61601 51.2513 3.14401 52.574 1.99201C53.8967 0.840008 55.6887 0.264008 57.95 0.264008C60.254 0.264008 62.046 0.797342 63.326 1.86401C64.6487 2.93068 65.31 4.44534 65.31 6.40801C65.31 8.20001 64.6487 9.67201 63.326 10.824C62.0033 11.976 60.2113 12.552 57.95 12.552Z" fill="#02126A"/>
<path d="M75.397 53V10.12H88.389V53H75.397ZM70.085 29.64V18.76H94.021V29.64H70.085Z" fill="#02126A"/>
<path d="M133.624 53.704C131.021 53.704 128.824 53.1707 127.032 52.104C125.24 51.0373 123.874 49.48 122.936 47.432C121.997 45.3413 121.527 42.824 121.527 39.88V18.76H134.52V38.792C134.52 39.7307 134.669 40.52 134.967 41.16C135.309 41.8 135.778 42.2907 136.376 42.632C136.973 42.9733 137.698 43.144 138.551 43.144C139.191 43.144 139.767 43.0587 140.279 42.888C140.834 42.6747 141.303 42.376 141.688 41.992C142.071 41.608 142.37 41.1813 142.583 40.712C142.797 40.2 142.904 39.6667 142.904 39.112V18.76H155.896V53H143.992L143.223 46.088L145.656 45.32C145.186 46.9413 144.354 48.392 143.16 49.672C142.007 50.9093 140.6 51.8907 138.936 52.616C137.272 53.3413 135.501 53.704 133.624 53.704Z" fill="#02126A"/>
<path d="M164.98 53V18.76H177.012L177.78 30.152L174.9 28.36C175.455 26.3973 176.329 24.648 177.524 23.112C178.719 21.5333 180.148 20.296 181.812 19.4C183.519 18.504 185.332 18.056 187.252 18.056C188.02 18.056 188.745 18.12 189.428 18.248C190.111 18.3333 190.772 18.4613 191.412 18.632L187.828 33.032C187.401 32.7333 186.719 32.456 185.78 32.2C184.884 31.944 183.903 31.816 182.836 31.816C182.068 31.816 181.364 31.944 180.724 32.2C180.127 32.4133 179.615 32.7547 179.188 33.224C178.804 33.6933 178.505 34.248 178.292 34.888C178.079 35.528 177.972 36.2747 177.972 37.128V53H164.98Z" fill="#02126A"/>
<path d="M6.12 133V88.2H26.728C29.9707 88.2 32.7013 88.648 34.92 89.544C37.1813 90.44 38.888 91.6987 40.04 93.32C41.2347 94.9413 41.832 96.84 41.832 99.016C41.832 101.704 41.2133 103.923 39.976 105.672C38.7813 107.421 37.0107 108.595 34.664 109.192L34.472 107.976C36.4347 108.445 38.1413 109.213 39.592 110.28C41.0427 111.304 42.1733 112.563 42.984 114.056C43.7947 115.549 44.2 117.256 44.2 119.176C44.2 121.523 43.7733 123.571 42.92 125.32C42.0667 127.027 40.8507 128.456 39.272 129.608C37.736 130.76 35.944 131.613 33.896 132.168C31.8907 132.723 29.7147 133 27.368 133H6.12ZM18.92 122.12H26.984C27.7947 122.12 28.4773 121.992 29.032 121.736C29.5867 121.437 30.0133 121.011 30.312 120.456C30.6107 119.859 30.76 119.155 30.76 118.344C30.76 117.619 30.5893 117.021 30.248 116.552C29.9493 116.04 29.5013 115.656 28.904 115.4C28.3067 115.101 27.56 114.952 26.664 114.952H18.92V122.12ZM18.92 105.736H24.36C25.3413 105.736 26.1307 105.608 26.728 105.352C27.368 105.096 27.816 104.733 28.072 104.264C28.3707 103.752 28.52 103.133 28.52 102.408C28.52 101.427 28.1787 100.637 27.496 100.04C26.856 99.4 25.768 99.08 24.232 99.08H18.92V105.736Z" fill="#02126A"/>
<path d="M51.422 133V98.76H64.414V133H51.422ZM57.95 92.552C55.646 92.552 53.8327 92.0187 52.51 90.952C51.23 89.8853 50.59 88.3707 50.59 86.408C50.59 84.616 51.2513 83.144 52.574 81.992C53.8967 80.84 55.6887 80.264 57.95 80.264C60.254 80.264 62.046 80.7973 63.326 81.864C64.6487 82.9307 65.31 84.4453 65.31 86.408C65.31 88.2 64.6487 89.672 63.326 90.824C62.0033 91.976 60.2113 92.552 57.95 92.552Z" fill="#02126A"/>
<path d="M75.397 133V90.12H88.389V133H75.397ZM70.085 109.64V98.76H94.021V109.64H70.085Z" fill="#02126A"/>
<path d="M116.056 133.64C112.088 133.64 108.675 132.872 105.816 131.336C102.957 129.8 100.76 127.709 99.224 125.064C97.688 122.376 96.92 119.304 96.92 115.848C96.92 113.288 97.3467 110.92 98.2 108.744C99.0533 106.568 100.248 104.691 101.784 103.112C103.363 101.491 105.197 100.253 107.288 99.4C109.421 98.504 111.747 98.056 114.264 98.056C116.781 98.056 119.064 98.504 121.112 99.4C123.203 100.253 124.995 101.491 126.488 103.112C127.981 104.691 129.112 106.568 129.88 108.744C130.691 110.92 131.053 113.288 130.968 115.848L130.904 118.536H104.088L102.616 112.456H120.6L119.384 113.736V112.584C119.384 111.773 119.171 111.069 118.744 110.472C118.36 109.832 117.805 109.341 117.08 109C116.355 108.659 115.501 108.488 114.52 108.488C113.283 108.488 112.237 108.744 111.384 109.256C110.531 109.768 109.869 110.493 109.4 111.432C108.973 112.371 108.76 113.501 108.76 114.824C108.76 116.36 109.08 117.704 109.72 118.856C110.403 120.008 111.384 120.904 112.664 121.544C113.987 122.184 115.608 122.504 117.528 122.504C118.808 122.504 119.896 122.355 120.792 122.056C121.731 121.715 122.712 121.181 123.736 120.456L129.688 128.84C128.109 130.077 126.552 131.037 125.016 131.72C123.523 132.403 122.029 132.893 120.536 133.192C119.085 133.491 117.592 133.64 116.056 133.64Z" fill="#02126A"/>
<path d="M162.363 115.976C161.979 113.459 161.574 110.856 161.147 108.168C160.72 105.48 160.358 102.813 160.059 100.168C159.803 97.48 159.675 94.8773 159.675 92.36V86.92H173.371V92.36C173.371 94.8773 173.222 97.48 172.923 100.168C172.667 102.813 172.326 105.48 171.899 108.168C171.472 110.856 171.067 113.459 170.683 115.976H162.363ZM166.587 133.704C164.582 133.704 163.024 133.149 161.915 132.04C160.806 130.931 160.251 129.352 160.251 127.304C160.251 125.427 160.827 123.891 161.979 122.696C163.174 121.501 164.71 120.904 166.587 120.904C168.592 120.904 170.15 121.459 171.259 122.568C172.368 123.677 172.923 125.256 172.923 127.304C172.923 129.181 172.326 130.717 171.131 131.912C169.979 133.107 168.464 133.704 166.587 133.704Z" fill="#02126A"/>
<path d="M2.99219 192.953C2.99219 193.318 3.0638 193.63 3.20703 193.891C3.35026 194.138 3.55208 194.34 3.8125 194.496C4.07292 194.652 4.38542 194.77 4.75 194.848C5.11458 194.913 5.51823 194.945 5.96094 194.945C7.06771 194.945 8.28516 194.73 9.61328 194.301C10.9544 193.858 12.5234 193.188 14.3203 192.289L14.5156 192.758C13.8646 193.174 13.1159 193.585 12.2695 193.988C11.4232 194.379 10.5378 194.73 9.61328 195.043C8.70182 195.342 7.77734 195.583 6.83984 195.766C5.90234 195.948 5.02344 196.039 4.20312 196.039C3.60417 196.039 3.05078 195.987 2.54297 195.883C2.03516 195.766 1.59245 195.583 1.21484 195.336C0.85026 195.089 0.563802 194.77 0.355469 194.379C0.134115 193.988 0.0234375 193.513 0.0234375 192.953C0.0234375 192.354 0.166667 191.723 0.453125 191.059C0.739583 190.382 1.1237 189.717 1.60547 189.066C2.10026 188.415 2.66667 187.797 3.30469 187.211C3.95573 186.612 4.63932 186.091 5.35547 185.648C6.07161 185.193 6.79427 184.835 7.52344 184.574C8.2526 184.301 8.95573 184.164 9.63281 184.164C10.0625 184.164 10.4661 184.203 10.8438 184.281C11.2214 184.359 11.5469 184.483 11.8203 184.652C12.0938 184.809 12.3086 185.023 12.4648 185.297C12.6341 185.557 12.7188 185.87 12.7188 186.234C12.7188 186.534 12.6471 186.827 12.5039 187.113C12.3737 187.4 12.1914 187.654 11.957 187.875C11.7227 188.096 11.4557 188.279 11.1562 188.422C10.8568 188.552 10.5443 188.617 10.2188 188.617C9.80208 188.617 9.5026 188.52 9.32031 188.324C9.13802 188.129 9.04688 187.94 9.04688 187.758C9.04688 187.432 9.14453 187.178 9.33984 186.996C9.54818 186.814 9.77604 186.664 10.0234 186.547C10.2708 186.417 10.4922 186.306 10.6875 186.215C10.8958 186.111 11 185.987 11 185.844C11 185.688 10.9479 185.577 10.8438 185.512C10.7396 185.447 10.6094 185.414 10.4531 185.414C9.89323 185.414 9.32031 185.551 8.73438 185.824C8.14844 186.085 7.57552 186.436 7.01562 186.879C6.46875 187.309 5.94792 187.797 5.45312 188.344C4.97135 188.878 4.54818 189.424 4.18359 189.984C3.81901 190.544 3.52604 191.085 3.30469 191.605C3.09635 192.126 2.99219 192.576 2.99219 192.953Z" fill="#02126A"/>
<path d="M23.6562 187.406C22.6146 188.148 21.625 188.936 20.6875 189.77C19.763 190.603 18.8516 191.469 17.9531 192.367C17.7318 192.628 17.4909 192.901 17.2305 193.188C16.9701 193.474 16.7096 193.754 16.4492 194.027C16.2018 194.301 15.9544 194.568 15.707 194.828C15.4596 195.076 15.2318 195.284 15.0234 195.453C14.8672 195.609 14.724 195.733 14.5938 195.824C14.4635 195.915 14.3073 195.961 14.125 195.961C14.0599 195.961 13.9883 195.961 13.9102 195.961C13.8451 195.948 13.7604 195.922 13.6562 195.883C13.4219 195.805 13.2201 195.701 13.0508 195.57C12.8815 195.427 12.7969 195.258 12.7969 195.063C12.7969 194.984 12.8164 194.893 12.8555 194.789C12.8945 194.685 12.9531 194.581 13.0312 194.477L20.9219 185.453C21.5599 184.724 22.2435 183.962 22.9727 183.168C23.7148 182.374 24.4766 181.56 25.2578 180.727C26.0391 179.893 26.8268 179.053 27.6211 178.207C28.4284 177.348 29.2292 176.495 30.0234 175.648C30.2839 175.362 30.6289 175.01 31.0586 174.594C31.4883 174.177 31.9635 173.741 32.4844 173.285C33.0052 172.816 33.5521 172.354 34.125 171.898C34.7109 171.443 35.2839 171.033 35.8438 170.668C36.4167 170.303 36.957 170.01 37.4648 169.789C37.9857 169.555 38.4479 169.438 38.8516 169.438C39.3854 169.438 39.7565 169.568 39.9648 169.828C40.1862 170.089 40.2969 170.427 40.2969 170.844C40.2839 171.26 40.0951 171.775 39.7305 172.387C39.3789 172.986 38.9232 173.63 38.3633 174.32C37.8034 174.997 37.1784 175.688 36.4883 176.391C35.7982 177.094 35.1146 177.751 34.4375 178.363C33.7734 178.975 33.1549 179.522 32.582 180.004C32.0091 180.486 31.5599 180.844 31.2344 181.078C30.6875 181.482 30.1341 181.859 29.5742 182.211C29.0273 182.563 28.4674 182.914 27.8945 183.266C27.3346 183.617 26.7487 183.988 26.1367 184.379C25.5378 184.77 24.9193 185.206 24.2812 185.688C24.125 185.909 23.9753 186.117 23.832 186.313C23.6888 186.508 23.5391 186.703 23.3828 186.898C23.5781 186.729 23.8711 186.501 24.2617 186.215C24.6654 185.928 25.1276 185.648 25.6484 185.375C26.1823 185.089 26.7552 184.841 27.3672 184.633C27.9792 184.424 28.5911 184.32 29.2031 184.32C30.0365 184.32 30.6029 184.444 30.9023 184.691C31.2018 184.926 31.3516 185.258 31.3516 185.688C31.3516 186.182 31.2083 186.697 30.9219 187.23C30.6354 187.751 30.2773 188.272 29.8477 188.793C29.431 189.314 28.9753 189.828 28.4805 190.336C27.9987 190.831 27.543 191.306 27.1133 191.762C26.6966 192.217 26.3451 192.647 26.0586 193.051C25.7852 193.441 25.6484 193.786 25.6484 194.086C25.6484 194.268 25.681 194.418 25.7461 194.535C25.8112 194.639 25.8893 194.724 25.9805 194.789C26.0846 194.841 26.1953 194.874 26.3125 194.887C26.4427 194.9 26.5729 194.906 26.7031 194.906C27.4453 194.906 28.181 194.835 28.9102 194.691C29.6393 194.548 30.3555 194.359 31.0586 194.125C31.7747 193.891 32.4779 193.624 33.168 193.324C33.8581 193.012 34.5286 192.693 35.1797 192.367L35.375 192.836C34.9453 193.122 34.3529 193.448 33.5977 193.813C32.8424 194.177 31.9961 194.522 31.0586 194.848C30.1211 195.173 29.1185 195.447 28.0508 195.668C26.9961 195.889 25.9479 196 24.9062 196C24.2943 196 23.7995 195.85 23.4219 195.551C23.0573 195.251 22.875 194.776 22.875 194.125C22.875 193.813 22.9792 193.448 23.1875 193.031C23.3958 192.615 23.6628 192.185 23.9883 191.742C24.3268 191.286 24.6979 190.824 25.1016 190.355C25.5182 189.887 25.9219 189.438 26.3125 189.008C26.7161 188.578 27.0938 188.181 27.4453 187.816C27.7969 187.439 28.0833 187.12 28.3047 186.859C28.3828 186.742 28.4935 186.592 28.6367 186.41C28.7799 186.215 28.8516 186.039 28.8516 185.883C28.8516 185.779 28.806 185.694 28.7148 185.629C28.6367 185.564 28.5 185.531 28.3047 185.531C27.901 185.531 27.5104 185.577 27.1328 185.668C26.7682 185.746 26.3971 185.863 26.0195 186.02C25.6549 186.176 25.2773 186.371 24.8867 186.605C24.4961 186.84 24.0859 187.107 23.6562 187.406ZM33.3438 175.57C32.1198 176.794 30.8763 178.077 29.6133 179.418C28.3633 180.746 27.1458 182.12 25.9609 183.539C26.5208 183.174 27.0872 182.816 27.6602 182.465C28.2331 182.113 28.8125 181.742 29.3984 181.352C29.9844 180.961 30.5833 180.538 31.1953 180.082C31.8203 179.626 32.4714 179.099 33.1484 178.5C33.7865 177.94 34.4375 177.335 35.1016 176.684C35.7656 176.033 36.3646 175.401 36.8984 174.789C37.4453 174.164 37.888 173.585 38.2266 173.051C38.5651 172.517 38.7344 172.081 38.7344 171.742C38.7344 171.56 38.6432 171.469 38.4609 171.469C38.2005 171.469 37.875 171.599 37.4844 171.859C37.0938 172.107 36.6641 172.432 36.1953 172.836C35.7396 173.227 35.2643 173.669 34.7695 174.164C34.2747 174.646 33.7995 175.115 33.3438 175.57Z" fill="#02126A"/>
<path d="M48.4219 192.016C47.7969 192.016 47.237 191.911 46.7422 191.703C46.2604 191.482 45.8438 191.182 45.4922 190.805C44.7891 191.911 44.0924 192.81 43.4023 193.5C42.7122 194.19 42.0417 194.73 41.3906 195.121C40.7526 195.512 40.1341 195.779 39.5352 195.922C38.9492 196.052 38.3958 196.117 37.875 196.117C37.25 196.117 36.7031 196.046 36.2344 195.902C35.7656 195.746 35.375 195.544 35.0625 195.297C34.75 195.036 34.5156 194.737 34.3594 194.398C34.2031 194.047 34.125 193.669 34.125 193.266C34.125 192.445 34.2878 191.651 34.6133 190.883C34.9388 190.102 35.375 189.379 35.9219 188.715C36.4688 188.038 37.0938 187.426 37.7969 186.879C38.513 186.319 39.2487 185.844 40.0039 185.453C40.7591 185.049 41.5143 184.744 42.2695 184.535C43.0247 184.314 43.7214 184.203 44.3594 184.203C44.6979 184.203 45.0365 184.229 45.375 184.281C45.7135 184.333 46.0195 184.438 46.293 184.594C46.5664 184.75 46.7878 184.965 46.957 185.238C47.1263 185.512 47.2109 185.87 47.2109 186.313C47.2109 186.612 47.1784 186.924 47.1133 187.25C47.0612 187.563 46.9961 187.869 46.918 188.168C46.8398 188.467 46.7487 188.754 46.6445 189.027C46.5534 189.301 46.4688 189.542 46.3906 189.75C46.4948 190.258 46.7747 190.648 47.2305 190.922C47.6992 191.182 48.2005 191.313 48.7344 191.313C49.1641 191.313 49.5938 191.228 50.0234 191.059C50.4661 190.889 50.8568 190.648 51.1953 190.336L51.5859 190.648C51.2474 191.065 50.7917 191.397 50.2188 191.645C49.6458 191.892 49.0469 192.016 48.4219 192.016ZM38.6953 194.945C39.125 194.945 39.6133 194.854 40.1602 194.672C40.707 194.49 41.2604 194.203 41.8203 193.813C42.3932 193.422 42.9531 192.921 43.5 192.309C44.0469 191.697 44.5417 190.961 44.9844 190.102C44.5417 189.372 44.3203 188.604 44.3203 187.797C44.3203 187.38 44.4115 187.003 44.5938 186.664C44.7891 186.313 45.0755 185.961 45.4531 185.609C45.375 185.57 45.2708 185.544 45.1406 185.531C45.0234 185.505 44.8542 185.492 44.6328 185.492C44.1771 185.492 43.6237 185.648 42.9727 185.961C42.3346 186.273 41.6771 186.697 41 187.23C40.3359 187.751 39.7044 188.363 39.1055 189.066C38.5065 189.77 38.0312 190.505 37.6797 191.273C37.5234 191.586 37.3737 191.951 37.2305 192.367C37.0872 192.771 37.0156 193.161 37.0156 193.539C37.0156 193.93 37.1328 194.262 37.3672 194.535C37.6016 194.809 38.0443 194.945 38.6953 194.945Z" fill="#02126A"/>
<path d="M64.2812 192.016C63.6562 192.016 63.0964 191.911 62.6016 191.703C62.1198 191.482 61.7031 191.182 61.3516 190.805C60.6484 191.911 59.9518 192.81 59.2617 193.5C58.5716 194.19 57.901 194.73 57.25 195.121C56.612 195.512 55.9935 195.779 55.3945 195.922C54.8086 196.052 54.2552 196.117 53.7344 196.117C53.1094 196.117 52.5625 196.046 52.0938 195.902C51.625 195.746 51.2344 195.544 50.9219 195.297C50.6094 195.036 50.375 194.737 50.2188 194.398C50.0625 194.047 49.9844 193.669 49.9844 193.266C49.9844 192.445 50.1471 191.651 50.4727 190.883C50.7982 190.102 51.2344 189.379 51.7812 188.715C52.3281 188.038 52.9531 187.426 53.6562 186.879C54.3724 186.319 55.1081 185.844 55.8633 185.453C56.6185 185.049 57.3737 184.744 58.1289 184.535C58.8841 184.314 59.5807 184.203 60.2188 184.203C60.5573 184.203 60.8958 184.229 61.2344 184.281C61.5729 184.333 61.8789 184.438 62.1523 184.594C62.4258 184.75 62.6471 184.965 62.8164 185.238C62.9857 185.512 63.0703 185.87 63.0703 186.313C63.0703 186.612 63.0378 186.924 62.9727 187.25C62.9206 187.563 62.8555 187.869 62.7773 188.168C62.6992 188.467 62.6081 188.754 62.5039 189.027C62.4128 189.301 62.3281 189.542 62.25 189.75C62.3542 190.258 62.6341 190.648 63.0898 190.922C63.5586 191.182 64.0599 191.313 64.5938 191.313C65.0234 191.313 65.4531 191.228 65.8828 191.059C66.3255 190.889 66.7161 190.648 67.0547 190.336L67.4453 190.648C67.1068 191.065 66.651 191.397 66.0781 191.645C65.5052 191.892 64.9062 192.016 64.2812 192.016ZM54.5547 194.945C54.9844 194.945 55.4727 194.854 56.0195 194.672C56.5664 194.49 57.1198 194.203 57.6797 193.813C58.2526 193.422 58.8125 192.921 59.3594 192.309C59.9062 191.697 60.401 190.961 60.8438 190.102C60.401 189.372 60.1797 188.604 60.1797 187.797C60.1797 187.38 60.2708 187.003 60.4531 186.664C60.6484 186.313 60.9349 185.961 61.3125 185.609C61.2344 185.57 61.1302 185.544 61 185.531C60.8828 185.505 60.7135 185.492 60.4922 185.492C60.0365 185.492 59.4831 185.648 58.832 185.961C58.194 186.273 57.5365 186.697 56.8594 187.23C56.1953 187.751 55.5638 188.363 54.9648 189.066C54.3659 189.77 53.8906 190.505 53.5391 191.273C53.3828 191.586 53.2331 191.951 53.0898 192.367C52.9466 192.771 52.875 193.161 52.875 193.539C52.875 193.93 52.9922 194.262 53.2266 194.535C53.4609 194.809 53.9036 194.945 54.5547 194.945Z" fill="#02126A"/>
<path d="M69.3984 190.063C69.5938 190.063 69.776 190.089 69.9453 190.141C70.1146 190.193 70.2578 190.258 70.375 190.336C70.9219 189.958 71.5339 189.535 72.2109 189.066C72.888 188.585 73.5846 188.096 74.3008 187.602C75.0169 187.094 75.7266 186.592 76.4297 186.098C77.1328 185.59 77.7904 185.121 78.4023 184.691C79.0143 184.249 79.5612 183.858 80.043 183.52C80.5247 183.168 80.8958 182.901 81.1562 182.719L81.5078 183.305C81.2083 183.604 80.9544 183.897 80.7461 184.184C80.5508 184.457 80.3945 184.73 80.2773 185.004C80.1602 185.264 80.0755 185.525 80.0234 185.785C79.9714 186.046 79.9453 186.313 79.9453 186.586C79.9453 187.836 79.8021 188.943 79.5156 189.906C79.2422 190.857 78.8646 191.684 78.3828 192.387C77.9141 193.077 77.3672 193.656 76.7422 194.125C76.1172 194.581 75.4531 194.952 74.75 195.238C74.0599 195.512 73.3503 195.707 72.6211 195.824C71.8919 195.941 71.1953 196 70.5312 196C70.1016 196 69.6263 195.948 69.1055 195.844C68.5977 195.727 68.1224 195.557 67.6797 195.336C67.237 195.102 66.8659 194.809 66.5664 194.457C66.2669 194.105 66.1172 193.682 66.1172 193.188C66.1172 192.784 66.2083 192.4 66.3906 192.035C66.5729 191.658 66.8138 191.326 67.1133 191.039C67.4258 190.74 67.7773 190.505 68.168 190.336C68.5716 190.154 68.9818 190.063 69.3984 190.063ZM77.3281 186.352C76.7682 186.729 76.2409 187.081 75.7461 187.406C75.2643 187.732 74.7695 188.07 74.2617 188.422C73.7539 188.773 73.2201 189.145 72.6602 189.535C72.1003 189.926 71.4818 190.362 70.8047 190.844C70.8828 190.961 70.9219 191.078 70.9219 191.195C70.9219 191.469 70.8568 191.71 70.7266 191.918C70.6094 192.113 70.4531 192.283 70.2578 192.426C70.0755 192.556 69.8737 192.673 69.6523 192.777C69.431 192.882 69.2227 192.979 69.0273 193.07C68.8451 193.161 68.6888 193.259 68.5586 193.363C68.4414 193.454 68.3828 193.565 68.3828 193.695C68.3828 193.865 68.4284 194.014 68.5195 194.145C68.6107 194.262 68.7279 194.359 68.8711 194.438C69.0143 194.516 69.1706 194.574 69.3398 194.613C69.5091 194.652 69.6719 194.672 69.8281 194.672C70.1406 194.672 70.4596 194.633 70.7852 194.555C71.1237 194.477 71.4427 194.385 71.7422 194.281C72.4193 194.073 73.0703 193.76 73.6953 193.344C74.3333 192.914 74.9062 192.374 75.4141 191.723C75.9219 191.072 76.3451 190.303 76.6836 189.418C77.0221 188.533 77.237 187.51 77.3281 186.352Z" fill="#02126A"/>
<path d="M95.4531 192.875C93.7865 193.643 92.3932 194.242 91.2734 194.672C90.1536 195.102 89.1966 195.427 88.4023 195.648C87.6211 195.857 86.944 195.987 86.3711 196.039C85.7982 196.091 85.2188 196.117 84.6328 196.117C84.1771 196.117 83.7409 196.059 83.3242 195.941C82.9206 195.824 82.5625 195.642 82.25 195.395C81.9375 195.147 81.6901 194.828 81.5078 194.438C81.3255 194.047 81.2344 193.578 81.2344 193.031C81.2344 192.406 81.3646 191.762 81.625 191.098C81.8984 190.421 82.2695 189.763 82.7383 189.125C83.207 188.474 83.7539 187.862 84.3789 187.289C85.0169 186.716 85.707 186.215 86.4492 185.785C87.1914 185.342 87.9661 184.997 88.7734 184.75C89.5938 184.49 90.4141 184.359 91.2344 184.359C91.5208 184.359 91.8594 184.385 92.25 184.438C92.6406 184.49 93.0117 184.594 93.3633 184.75C93.7148 184.893 94.0143 185.095 94.2617 185.355C94.5091 185.616 94.6328 185.948 94.6328 186.352C94.6328 186.716 94.4635 187.094 94.125 187.484C93.7865 187.875 93.3307 188.272 92.7578 188.676C92.1979 189.066 91.5469 189.457 90.8047 189.848C90.0625 190.238 89.2943 190.616 88.5 190.98C87.7188 191.332 86.931 191.664 86.1367 191.977C85.3424 192.289 84.6068 192.563 83.9297 192.797C83.9036 192.901 83.8906 193.005 83.8906 193.109C83.8906 193.214 83.8906 193.318 83.8906 193.422C83.8906 193.917 84.0534 194.327 84.3789 194.652C84.7044 194.978 85.1536 195.141 85.7266 195.141C86.2344 195.141 86.7357 195.121 87.2305 195.082C87.7253 195.043 88.3177 194.939 89.0078 194.77C89.6979 194.587 90.5378 194.314 91.5273 193.949C92.5169 193.572 93.7604 193.057 95.2578 192.406L95.4531 192.875ZM90.9609 185.57C90.6224 185.57 90.2448 185.668 89.8281 185.863C89.4115 186.046 88.9753 186.299 88.5195 186.625C88.0638 186.938 87.6081 187.309 87.1523 187.738C86.7096 188.168 86.2865 188.63 85.8828 189.125C85.4922 189.607 85.1406 190.108 84.8281 190.629C84.5156 191.137 84.2812 191.638 84.125 192.133C84.6979 191.924 85.2904 191.697 85.9023 191.449C86.5273 191.202 87.1328 190.941 87.7188 190.668C88.3177 190.395 88.8841 190.108 89.418 189.809C89.9518 189.496 90.4206 189.171 90.8242 188.832C91.2279 188.494 91.5469 188.148 91.7812 187.797C92.0156 187.432 92.1328 187.055 92.1328 186.664C92.1328 186.352 92.0482 186.091 91.8789 185.883C91.7227 185.674 91.4167 185.57 90.9609 185.57Z" fill="#02126A"/>
<path d="M117.289 189.906C117.523 189.62 117.803 189.281 118.129 188.891C118.454 188.487 118.799 188.077 119.164 187.66C119.542 187.244 119.919 186.833 120.297 186.43C120.674 186.026 121.033 185.668 121.371 185.355C121.723 185.03 122.035 184.77 122.309 184.574C122.582 184.379 122.797 184.281 122.953 184.281C123.057 184.281 123.201 184.301 123.383 184.34C123.565 184.379 123.741 184.438 123.91 184.516C124.092 184.581 124.242 184.672 124.359 184.789C124.49 184.893 124.555 185.01 124.555 185.141C124.555 185.284 124.457 185.466 124.262 185.688C124.079 185.909 123.852 186.169 123.578 186.469C122.966 187.172 122.432 187.777 121.977 188.285C121.534 188.78 121.137 189.216 120.785 189.594C120.447 189.971 120.147 190.31 119.887 190.609C119.626 190.909 119.372 191.208 119.125 191.508C118.656 192.055 118.259 192.556 117.934 193.012C117.608 193.467 117.445 193.826 117.445 194.086C117.445 194.268 117.478 194.418 117.543 194.535C117.608 194.639 117.686 194.724 117.777 194.789C117.882 194.841 117.992 194.874 118.109 194.887C118.24 194.9 118.37 194.906 118.5 194.906C119.242 194.906 119.978 194.835 120.707 194.691C121.436 194.548 122.152 194.359 122.855 194.125C123.572 193.891 124.275 193.624 124.965 193.324C125.655 193.012 126.326 192.693 126.977 192.367L127.172 192.836C126.742 193.122 126.15 193.448 125.395 193.813C124.639 194.177 123.793 194.522 122.855 194.848C121.918 195.173 120.915 195.447 119.848 195.668C118.793 195.889 117.745 196 116.703 196C116.091 196 115.596 195.85 115.219 195.551C114.854 195.251 114.672 194.776 114.672 194.125C114.672 193.943 114.711 193.734 114.789 193.5C114.542 193.682 114.19 193.917 113.734 194.203C113.292 194.477 112.784 194.75 112.211 195.023C111.651 195.284 111.059 195.512 110.434 195.707C109.809 195.902 109.203 196 108.617 196C107.771 196 107.178 195.87 106.84 195.609C106.514 195.336 106.352 194.984 106.352 194.555C106.352 194.229 106.443 193.878 106.625 193.5C106.807 193.109 107.042 192.719 107.328 192.328C107.615 191.924 107.927 191.521 108.266 191.117C108.604 190.714 108.93 190.323 109.242 189.945C109.477 189.659 109.757 189.32 110.082 188.93C110.421 188.539 110.772 188.135 111.137 187.719C111.514 187.289 111.892 186.872 112.27 186.469C112.66 186.065 113.025 185.701 113.363 185.375C113.715 185.049 114.027 184.789 114.301 184.594C114.574 184.385 114.789 184.281 114.945 184.281C115.049 184.281 115.193 184.301 115.375 184.34C115.557 184.379 115.733 184.438 115.902 184.516C116.085 184.581 116.234 184.672 116.352 184.789C116.482 184.893 116.547 185.01 116.547 185.141C116.547 185.284 116.449 185.466 116.254 185.688C116.072 185.909 115.844 186.169 115.57 186.469L112.328 190.141C112.237 190.245 112.087 190.408 111.879 190.629C111.684 190.85 111.462 191.111 111.215 191.41C110.967 191.697 110.707 192.003 110.434 192.328C110.173 192.641 109.932 192.94 109.711 193.227C109.503 193.513 109.327 193.767 109.184 193.988C109.04 194.21 108.969 194.359 108.969 194.438C108.969 194.542 109.008 194.626 109.086 194.691C109.177 194.757 109.32 194.789 109.516 194.789C109.919 194.789 110.342 194.73 110.785 194.613C111.228 194.496 111.677 194.34 112.133 194.145C112.602 193.949 113.064 193.721 113.52 193.461C113.988 193.188 114.438 192.901 114.867 192.602C115.01 192.497 115.225 192.283 115.512 191.957C115.798 191.632 116.091 191.299 116.391 190.961L117.289 189.906Z" fill="#02126A"/>
<path d="M132.055 181.664C132.328 181.664 132.589 181.723 132.836 181.84C133.096 181.957 133.305 182.133 133.461 182.367C133.656 182.602 133.78 182.908 133.832 183.285C133.897 183.65 133.93 184.047 133.93 184.477L133.891 185.453C134.073 185.518 134.301 185.577 134.574 185.629C134.861 185.668 135.154 185.688 135.453 185.688C136.026 185.688 136.697 185.59 137.465 185.395C138.233 185.199 139.138 184.815 140.18 184.242C140.206 184.268 140.232 184.307 140.258 184.359C140.284 184.411 140.316 184.47 140.355 184.535C140.395 184.6 140.44 184.672 140.492 184.75C140.258 184.867 140.062 184.984 139.906 185.102C139.75 185.219 139.594 185.349 139.438 185.492C139.268 185.635 139.047 185.85 138.773 186.137C138.513 186.41 138.24 186.703 137.953 187.016C137.667 187.328 137.387 187.647 137.113 187.973C136.853 188.285 136.638 188.552 136.469 188.773C136.052 189.307 135.648 189.848 135.258 190.395C134.88 190.941 134.542 191.456 134.242 191.938C133.956 192.419 133.728 192.855 133.559 193.246C133.389 193.624 133.305 193.917 133.305 194.125C133.305 194.464 133.409 194.678 133.617 194.77C133.839 194.861 134.138 194.906 134.516 194.906C134.867 194.906 135.297 194.88 135.805 194.828C136.326 194.763 136.924 194.639 137.602 194.457C138.292 194.275 139.066 194.021 139.926 193.695C140.798 193.357 141.768 192.914 142.836 192.367L143.031 192.836C142.029 193.435 141.033 193.936 140.043 194.34C139.066 194.744 138.122 195.069 137.211 195.316C136.312 195.564 135.466 195.74 134.672 195.844C133.878 195.948 133.174 196 132.562 196C131.859 196 131.345 195.831 131.02 195.492C130.694 195.141 130.531 194.672 130.531 194.086C130.531 193.852 130.596 193.585 130.727 193.285C130.857 192.986 131.059 192.634 131.332 192.23C131.605 191.814 131.957 191.339 132.387 190.805C132.829 190.271 133.357 189.646 133.969 188.93C134.008 188.891 134.092 188.799 134.223 188.656C134.353 188.5 134.503 188.331 134.672 188.148C134.854 187.953 135.043 187.751 135.238 187.543C135.447 187.322 135.635 187.12 135.805 186.938C135.974 186.755 136.117 186.599 136.234 186.469C136.365 186.339 136.443 186.26 136.469 186.234C136.286 186.273 136.085 186.313 135.863 186.352C135.642 186.378 135.414 186.391 135.18 186.391C134.958 186.391 134.717 186.391 134.457 186.391C134.197 186.378 133.956 186.352 133.734 186.313C133.656 186.703 133.546 187.081 133.402 187.445C133.272 187.81 133.09 188.168 132.855 188.52C132.621 188.871 132.322 189.216 131.957 189.555C131.605 189.893 131.169 190.232 130.648 190.57L130.141 190.258C130.674 189.958 131.111 189.626 131.449 189.262C131.788 188.897 132.055 188.533 132.25 188.168C132.445 187.79 132.576 187.419 132.641 187.055C132.719 186.677 132.771 186.326 132.797 186C132.458 185.896 132.133 185.759 131.82 185.59C131.521 185.421 131.254 185.225 131.02 185.004C130.798 184.783 130.622 184.529 130.492 184.242C130.362 183.956 130.297 183.643 130.297 183.305C130.297 182.836 130.46 182.445 130.785 182.133C131.124 181.82 131.547 181.664 132.055 181.664Z" fill="#02126A"/>
<path d="M168.617 186.43C168.812 185.688 169.118 185.095 169.535 184.652C169.952 184.197 170.388 183.969 170.844 183.969C171.143 183.969 171.378 184.06 171.547 184.242C171.729 184.424 171.82 184.672 171.82 184.984C171.82 185.531 171.658 186.117 171.332 186.742C171.007 187.354 170.57 188.031 170.023 188.773C170.036 189.073 170.121 189.346 170.277 189.594C170.447 189.828 170.648 190.03 170.883 190.199C171.13 190.355 171.404 190.479 171.703 190.57C172.003 190.648 172.302 190.688 172.602 190.688C172.875 190.688 173.142 190.661 173.402 190.609C173.676 190.557 173.943 190.479 174.203 190.375L174.438 190.727C174.177 190.922 173.878 191.072 173.539 191.176C173.214 191.267 172.862 191.313 172.484 191.313C171.82 191.313 171.202 191.176 170.629 190.902C170.056 190.616 169.594 190.219 169.242 189.711C168.435 190.635 167.536 191.482 166.547 192.25C165.557 193.005 164.542 193.663 163.5 194.223C162.471 194.77 161.449 195.199 160.434 195.512C159.418 195.811 158.487 195.961 157.641 195.961C157.107 195.961 156.664 195.909 156.312 195.805C155.974 195.701 155.701 195.564 155.492 195.395C155.297 195.212 155.154 194.997 155.062 194.75C154.984 194.503 154.945 194.229 154.945 193.93C154.945 193.318 155.134 192.569 155.512 191.684C155.902 190.798 156.417 189.835 157.055 188.793C157.706 187.751 158.454 186.658 159.301 185.512C160.147 184.353 161.033 183.201 161.957 182.055C162.895 180.909 163.839 179.789 164.789 178.695C165.753 177.602 166.664 176.586 167.523 175.648C167.784 175.362 168.129 175.01 168.559 174.594C168.988 174.177 169.464 173.741 169.984 173.285C170.505 172.816 171.052 172.354 171.625 171.898C172.211 171.443 172.784 171.033 173.344 170.668C173.917 170.303 174.457 170.01 174.965 169.789C175.486 169.555 175.948 169.438 176.352 169.438C176.885 169.438 177.257 169.568 177.465 169.828C177.686 170.089 177.797 170.427 177.797 170.844C177.797 171.169 177.693 171.547 177.484 171.977C177.276 172.406 177.009 172.862 176.684 173.344C176.358 173.826 175.993 174.314 175.59 174.809C175.199 175.303 174.815 175.766 174.438 176.195C174.06 176.625 173.708 177.009 173.383 177.348C173.07 177.686 172.836 177.94 172.68 178.109C171.898 178.93 171.195 179.665 170.57 180.316C169.945 180.967 169.327 181.599 168.715 182.211C168.103 182.81 167.465 183.428 166.801 184.066C166.137 184.691 165.375 185.395 164.516 186.176C163.656 186.944 162.66 187.823 161.527 188.813C160.408 189.802 159.086 190.961 157.562 192.289C157.419 192.641 157.309 192.966 157.23 193.266C157.165 193.552 157.133 193.813 157.133 194.047C157.133 194.398 157.276 194.659 157.562 194.828C157.862 194.984 158.201 195.063 158.578 195.063C159.359 195.063 160.199 194.887 161.098 194.535C162.009 194.184 162.921 193.721 163.832 193.148C164.743 192.563 165.622 191.905 166.469 191.176C167.328 190.447 168.096 189.698 168.773 188.93C168.591 188.487 168.5 187.979 168.5 187.406C168.5 187.068 168.539 186.742 168.617 186.43ZM170.844 175.57C170.154 176.273 169.424 177.029 168.656 177.836C167.888 178.63 167.113 179.464 166.332 180.336C165.564 181.195 164.796 182.074 164.027 182.973C163.272 183.871 162.549 184.763 161.859 185.648C161.182 186.521 160.551 187.374 159.965 188.207C159.379 189.027 158.878 189.802 158.461 190.531C159.177 189.919 159.978 189.223 160.863 188.441C161.749 187.647 162.673 186.814 163.637 185.941C164.613 185.056 165.596 184.145 166.586 183.207C167.589 182.27 168.552 181.339 169.477 180.414C170.414 179.477 171.293 178.572 172.113 177.699C172.934 176.814 173.65 175.994 174.262 175.238C174.874 174.483 175.355 173.806 175.707 173.207C176.059 172.608 176.234 172.12 176.234 171.742C176.234 171.56 176.143 171.469 175.961 171.469C175.701 171.469 175.375 171.599 174.984 171.859C174.594 172.107 174.164 172.432 173.695 172.836C173.24 173.227 172.764 173.669 172.27 174.164C171.775 174.646 171.299 175.115 170.844 175.57Z" fill="#02126A"/>
<path d="M186.625 179.281C186.625 179.503 186.566 179.711 186.449 179.906C186.332 180.102 186.176 180.271 185.98 180.414C185.798 180.557 185.583 180.674 185.336 180.766C185.089 180.844 184.841 180.883 184.594 180.883C184.411 180.883 184.229 180.863 184.047 180.824C183.878 180.785 183.715 180.714 183.559 180.609C183.415 180.505 183.298 180.369 183.207 180.199C183.116 180.017 183.07 179.789 183.07 179.516C183.07 179.281 183.135 179.079 183.266 178.91C183.396 178.741 183.559 178.604 183.754 178.5C183.949 178.396 184.171 178.318 184.418 178.266C184.665 178.214 184.906 178.188 185.141 178.188C185.531 178.188 185.857 178.279 186.117 178.461C186.391 178.63 186.56 178.904 186.625 179.281ZM175.062 192.875C174.867 193.109 174.711 193.35 174.594 193.598C174.49 193.832 174.438 194.021 174.438 194.164C174.438 194.503 174.542 194.717 174.75 194.809C174.971 194.9 175.271 194.945 175.648 194.945C176 194.945 176.43 194.919 176.938 194.867C177.458 194.802 178.057 194.678 178.734 194.496C179.424 194.314 180.199 194.06 181.059 193.734C181.931 193.396 182.901 192.953 183.969 192.406L184.164 192.875C183.161 193.474 182.165 193.975 181.176 194.379C180.199 194.783 179.255 195.108 178.344 195.355C177.445 195.603 176.599 195.779 175.805 195.883C175.01 195.987 174.307 196.039 173.695 196.039C172.992 196.039 172.478 195.87 172.152 195.531C171.827 195.18 171.664 194.711 171.664 194.125C171.664 193.813 171.768 193.461 171.977 193.07C172.185 192.667 172.523 192.159 172.992 191.547C173.487 190.922 174.008 190.31 174.555 189.711C175.102 189.112 175.648 188.487 176.195 187.836C176.56 187.406 176.938 186.983 177.328 186.566C177.719 186.137 178.09 185.753 178.441 185.414C178.793 185.076 179.112 184.802 179.398 184.594C179.685 184.385 179.906 184.281 180.062 184.281C180.167 184.281 180.31 184.301 180.492 184.34C180.674 184.379 180.85 184.438 181.02 184.516C181.202 184.581 181.352 184.672 181.469 184.789C181.599 184.893 181.664 185.01 181.664 185.141C181.664 185.284 181.566 185.466 181.371 185.688C181.189 185.909 180.961 186.169 180.688 186.469L177.445 190.141C177.354 190.232 177.217 190.375 177.035 190.57C176.866 190.753 176.671 190.974 176.449 191.234C176.241 191.482 176.013 191.749 175.766 192.035C175.518 192.322 175.284 192.602 175.062 192.875Z" fill="#02126A"/>
<path d="M194.828 179.125C195.206 178.669 195.583 178.214 195.961 177.758C196.352 177.302 196.742 176.846 197.133 176.391C197.38 176.104 197.667 175.766 197.992 175.375C198.318 174.984 198.663 174.581 199.027 174.164C199.405 173.734 199.783 173.318 200.16 172.914C200.551 172.51 200.915 172.146 201.254 171.82C201.605 171.495 201.918 171.234 202.191 171.039C202.465 170.831 202.68 170.727 202.836 170.727C202.94 170.727 203.083 170.746 203.266 170.785C203.448 170.824 203.624 170.883 203.793 170.961C203.975 171.026 204.125 171.117 204.242 171.234C204.372 171.339 204.438 171.456 204.438 171.586C204.438 171.729 204.34 171.911 204.145 172.133C203.962 172.354 203.734 172.615 203.461 172.914L200.219 176.586C200.128 176.677 199.997 176.82 199.828 177.016C199.659 177.198 199.464 177.419 199.242 177.68C199.034 177.927 198.806 178.194 198.559 178.48C198.311 178.754 198.07 179.021 197.836 179.281L202.406 179.555L201.547 180.844H196.469C195.792 181.612 195.108 182.393 194.418 183.188C193.741 183.969 193.083 184.73 192.445 185.473C191.807 186.215 191.202 186.918 190.629 187.582C190.056 188.246 189.542 188.845 189.086 189.379C188.643 189.913 188.259 190.369 187.934 190.746C187.621 191.111 187.406 191.365 187.289 191.508C186.82 192.055 186.436 192.569 186.137 193.051C185.837 193.52 185.688 193.891 185.688 194.164C185.688 194.503 185.792 194.717 186 194.809C186.221 194.9 186.521 194.945 186.898 194.945C187.25 194.945 187.68 194.919 188.188 194.867C188.708 194.802 189.307 194.678 189.984 194.496C190.674 194.314 191.449 194.06 192.309 193.734C193.181 193.396 194.151 192.953 195.219 192.406L195.414 192.875C194.411 193.474 193.415 193.975 192.426 194.379C191.449 194.783 190.505 195.108 189.594 195.355C188.695 195.603 187.849 195.779 187.055 195.883C186.26 195.987 185.557 196.039 184.945 196.039C184.242 196.039 183.728 195.87 183.402 195.531C183.077 195.18 182.914 194.711 182.914 194.125C182.914 193.747 183.064 193.298 183.363 192.777C183.676 192.257 184.177 191.573 184.867 190.727C184.945 190.635 185.115 190.434 185.375 190.121C185.648 189.796 185.993 189.392 186.41 188.91C186.827 188.428 187.302 187.875 187.836 187.25C188.37 186.625 188.936 185.967 189.535 185.277C190.147 184.574 190.779 183.852 191.43 183.109C192.081 182.354 192.732 181.599 193.383 180.844H189.633L191.078 178.891L194.828 179.125Z" fill="#02126A"/>
<path d="M208.695 192.875C207.029 193.643 205.635 194.242 204.516 194.672C203.396 195.102 202.439 195.427 201.645 195.648C200.863 195.857 200.186 195.987 199.613 196.039C199.04 196.091 198.461 196.117 197.875 196.117C197.419 196.117 196.983 196.059 196.566 195.941C196.163 195.824 195.805 195.642 195.492 195.395C195.18 195.147 194.932 194.828 194.75 194.438C194.568 194.047 194.477 193.578 194.477 193.031C194.477 192.406 194.607 191.762 194.867 191.098C195.141 190.421 195.512 189.763 195.98 189.125C196.449 188.474 196.996 187.862 197.621 187.289C198.259 186.716 198.949 186.215 199.691 185.785C200.434 185.342 201.208 184.997 202.016 184.75C202.836 184.49 203.656 184.359 204.477 184.359C204.763 184.359 205.102 184.385 205.492 184.438C205.883 184.49 206.254 184.594 206.605 184.75C206.957 184.893 207.257 185.095 207.504 185.355C207.751 185.616 207.875 185.948 207.875 186.352C207.875 186.716 207.706 187.094 207.367 187.484C207.029 187.875 206.573 188.272 206 188.676C205.44 189.066 204.789 189.457 204.047 189.848C203.305 190.238 202.536 190.616 201.742 190.98C200.961 191.332 200.173 191.664 199.379 191.977C198.585 192.289 197.849 192.563 197.172 192.797C197.146 192.901 197.133 193.005 197.133 193.109C197.133 193.214 197.133 193.318 197.133 193.422C197.133 193.917 197.296 194.327 197.621 194.652C197.947 194.978 198.396 195.141 198.969 195.141C199.477 195.141 199.978 195.121 200.473 195.082C200.967 195.043 201.56 194.939 202.25 194.77C202.94 194.587 203.78 194.314 204.77 193.949C205.759 193.572 207.003 193.057 208.5 192.406L208.695 192.875ZM204.203 185.57C203.865 185.57 203.487 185.668 203.07 185.863C202.654 186.046 202.217 186.299 201.762 186.625C201.306 186.938 200.85 187.309 200.395 187.738C199.952 188.168 199.529 188.63 199.125 189.125C198.734 189.607 198.383 190.108 198.07 190.629C197.758 191.137 197.523 191.638 197.367 192.133C197.94 191.924 198.533 191.697 199.145 191.449C199.77 191.202 200.375 190.941 200.961 190.668C201.56 190.395 202.126 190.108 202.66 189.809C203.194 189.496 203.663 189.171 204.066 188.832C204.47 188.494 204.789 188.148 205.023 187.797C205.258 187.432 205.375 187.055 205.375 186.664C205.375 186.352 205.29 186.091 205.121 185.883C204.965 185.674 204.659 185.57 204.203 185.57Z" fill="#02126A"/>
<path d="M245.648 171.781C243.617 174.125 241.82 176.189 240.258 177.973C238.708 179.757 237.361 181.313 236.215 182.641C235.069 183.969 234.099 185.089 233.305 186C232.51 186.911 231.853 187.667 231.332 188.266C230.824 188.865 230.427 189.327 230.141 189.652C229.854 189.978 229.639 190.225 229.496 190.395C229.353 190.551 229.262 190.648 229.223 190.688C229.197 190.727 229.177 190.753 229.164 190.766C228.799 191.13 228.448 191.313 228.109 191.313C227.836 191.313 227.595 191.228 227.387 191.059C227.191 190.889 227.094 190.674 227.094 190.414C227.094 190.271 227.133 190.128 227.211 189.984C227.302 189.828 227.419 189.659 227.562 189.477C228.461 188.331 229.372 187.185 230.297 186.039C231.234 184.893 232.191 183.741 233.168 182.582C234.145 181.41 235.141 180.219 236.156 179.008C237.185 177.797 238.24 176.547 239.32 175.258C239.555 174.971 239.835 174.633 240.16 174.242C240.499 173.852 240.85 173.448 241.215 173.031C241.592 172.602 241.97 172.185 242.348 171.781C242.738 171.378 243.103 171.013 243.441 170.688C243.793 170.362 244.105 170.102 244.379 169.906C244.652 169.698 244.867 169.594 245.023 169.594C245.128 169.594 245.271 169.613 245.453 169.652C245.635 169.691 245.811 169.75 245.98 169.828C246.163 169.893 246.312 169.984 246.43 170.102C246.56 170.206 246.625 170.323 246.625 170.453C246.625 170.596 246.527 170.779 246.332 171C246.15 171.221 245.922 171.482 245.648 171.781ZM226.547 194.398C226.547 194.62 226.488 194.828 226.371 195.023C226.254 195.219 226.098 195.388 225.902 195.531C225.72 195.674 225.505 195.792 225.258 195.883C225.01 195.961 224.763 196 224.516 196C224.333 196 224.151 195.98 223.969 195.941C223.799 195.902 223.637 195.831 223.48 195.727C223.337 195.622 223.22 195.486 223.129 195.316C223.038 195.134 222.992 194.906 222.992 194.633C222.992 194.398 223.057 194.197 223.188 194.027C223.318 193.858 223.48 193.721 223.676 193.617C223.871 193.513 224.092 193.435 224.34 193.383C224.587 193.331 224.828 193.305 225.062 193.305C225.453 193.305 225.779 193.396 226.039 193.578C226.312 193.747 226.482 194.021 226.547 194.398Z" fill="#02126A"/>
</svg>
